<svg width="1600" height="1200" viewBox="0 0 1600 1200" fill="none" xmlns="http://www.w3.org/2000/svg">
  <defs>
    <linearGradient id="bg" x1="180" y1="60" x2="1420" y2="1130" gradientUnits="userSpaceOnUse">
      <stop offset="0" stop-color="#040404"/>
      <stop offset="1" stop-color="#161616"/>
    </linearGradient>
    <linearGradient id="floor" x1="800" y1="760" x2="800" y2="1200" gradientUnits="userSpaceOnUse">
      <stop offset="0" stop-color="#20160b" stop-opacity="0"/>
      <stop offset="1" stop-color="#0A0A0A"/>
    </linearGradient>
    <linearGradient id="panel" x1="250" y1="150" x2="1400" y2="980" gradientUnits="userSpaceOnUse">
      <stop offset="0" stop-color="#121212"/>
      <stop offset="1" stop-color="#0A0A0A"/>
    </linearGradient>
    <radialGradient id="glowA" cx="0" cy="0" r="1" gradientUnits="userSpaceOnUse" gradientTransform="translate(340 250) rotate(45) scale(430)">
      <stop offset="0" stop-color="#B99255" stop-opacity="0.55"/>
      <stop offset="1" stop-color="#B99255" stop-opacity="0"/>
    </radialGradient>
    <radialGradient id="glowB" cx="0" cy="0" r="1" gradientUnits="userSpaceOnUse" gradientTransform="translate(1220 220) rotate(45) scale(380)">
      <stop offset="0" stop-color="#2F80ED" stop-opacity="0.45"/>
      <stop offset="1" stop-color="#2F80ED" stop-opacity="0"/>
    </radialGradient>
    <filter id="blur" x="-50%" y="-50%" width="200%" height="200%">
      <feGaussianBlur stdDeviation="60"/>
    </filter>
  </defs>
  <rect width="1600" height="1200" fill="url(#bg)"/>
  <circle cx="340" cy="250" r="360" fill="url(#glowA)"/>
  <circle cx="1220" cy="220" r="320" fill="url(#glowB)"/>
  <rect x="94" y="86" width="1412" height="1028" rx="56" fill="url(#panel)" stroke="rgba(255,255,255,0.08)"/>
  <rect x="130" y="122" width="1340" height="956" rx="40" fill="#161616" fill-opacity="0.42"/>
  <path d="M0 924C264 818 505 846 790 898C1072 950 1292 920 1600 782V1200H0V924Z" fill="url(#floor)"/>
  <path d="M140 988C336 912 532 904 794 954C1070 1006 1280 984 1460 928" stroke="#2F80ED" stroke-opacity="0.22" stroke-width="2"/>
  <path d="M180 214H1420" stroke="rgba(255,255,255,0.05)" stroke-width="2"/>
    <rect x="208" y="664" width="522" height="184" rx="34" fill="#101010" stroke="rgba(255,255,255,0.08)"/>
  <rect x="248" y="706" width="54" height="96" rx="10" fill="#EEE6D8"/>
  <rect x="314" y="706" width="54" height="96" rx="10" fill="#EEE6D8"/>
  <rect x="380" y="706" width="54" height="96" rx="10" fill="#EEE6D8"/>
  <rect x="446" y="706" width="54" height="96" rx="10" fill="#EEE6D8"/>
  <rect x="512" y="706" width="54" height="96" rx="10" fill="#EEE6D8"/>
  <rect x="578" y="706" width="54" height="96" rx="10" fill="#EEE6D8"/>
  <rect x="274" y="706" width="30" height="58" rx="7" fill="#050505"/>
  <rect x="340" y="706" width="30" height="58" rx="7" fill="#050505"/>
  <rect x="406" y="706" width="30" height="58" rx="7" fill="#050505"/>
  <rect x="472" y="706" width="30" height="58" rx="7" fill="#050505"/>
  <rect x="538" y="706" width="30" height="58" rx="7" fill="#050505"/>
    <circle cx="980" cy="810" r="24" fill="#2F80ED" fill-opacity="0.28"/>
  <circle cx="1060" cy="786" r="16" fill="#C8A96A" fill-opacity="0.22"/>
  <path d="M852 430C938 372 1036 356 1166 382" stroke="#FFFFFF" stroke-opacity="0.08" stroke-width="5" stroke-linecap="round"/>
    <g>
    <circle cx="910" cy="332" r="68" fill="#1A1A1A"/>
    <path d="M816 954C832 760 870 552 914 552C960 552 994 758 1010 954H816Z" fill="#121212"/>
    <circle cx="1120" cy="360" r="64" fill="#1A1A1A"/>
    <path d="M1028 964C1042 784 1082 584 1124 584C1166 584 1202 782 1218 964H1028Z" fill="#131313"/>
  </g>
</svg>