<svg width="1600" height="1200" viewBox="0 0 1600 1200" fill="none" xmlns="http://www.w3.org/2000/svg">
  <defs>
    <linearGradient id="bg" x1="180" y1="60" x2="1420" y2="1130" gradientUnits="userSpaceOnUse">
      <stop offset="0" stop-color="#040404"/>
      <stop offset="1" stop-color="#161616"/>
    </linearGradient>
    <linearGradient id="floor" x1="800" y1="760" x2="800" y2="1200" gradientUnits="userSpaceOnUse">
      <stop offset="0" stop-color="#20160b" stop-opacity="0"/>
      <stop offset="1" stop-color="#0A0A0A"/>
    </linearGradient>
    <linearGradient id="panel" x1="250" y1="150" x2="1400" y2="980" gradientUnits="userSpaceOnUse">
      <stop offset="0" stop-color="#121212"/>
      <stop offset="1" stop-color="#0A0A0A"/>
    </linearGradient>
    <radialGradient id="glowA" cx="0" cy="0" r="1" gradientUnits="userSpaceOnUse" gradientTransform="translate(340 250) rotate(45) scale(430)">
      <stop offset="0" stop-color="#BC9B62" stop-opacity="0.55"/>
      <stop offset="1" stop-color="#BC9B62" stop-opacity="0"/>
    </radialGradient>
    <radialGradient id="glowB" cx="0" cy="0" r="1" gradientUnits="userSpaceOnUse" gradientTransform="translate(1220 220) rotate(45) scale(380)">
      <stop offset="0" stop-color="#5AA9E6" stop-opacity="0.45"/>
      <stop offset="1" stop-color="#5AA9E6" stop-opacity="0"/>
    </radialGradient>
    <filter id="blur" x="-50%" y="-50%" width="200%" height="200%">
      <feGaussianBlur stdDeviation="60"/>
    </filter>
  </defs>
  <rect width="1600" height="1200" fill="url(#bg)"/>
  <circle cx="340" cy="250" r="360" fill="url(#glowA)"/>
  <circle cx="1220" cy="220" r="320" fill="url(#glowB)"/>
  <rect x="94" y="86" width="1412" height="1028" rx="56" fill="url(#panel)" stroke="rgba(255,255,255,0.08)"/>
  <rect x="130" y="122" width="1340" height="956" rx="40" fill="#161616" fill-opacity="0.42"/>
  <path d="M0 924C264 818 505 846 790 898C1072 950 1292 920 1600 782V1200H0V924Z" fill="url(#floor)"/>
  <path d="M140 988C336 912 532 904 794 954C1070 1006 1280 984 1460 928" stroke="#BC9B62" stroke-opacity="0.22" stroke-width="2"/>
  <path d="M180 214H1420" stroke="rgba(255,255,255,0.05)" stroke-width="2"/>
    <rect x="182" y="206" width="632" height="410" rx="36" fill="#101010" stroke="rgba(255,255,255,0.08)"/>
  <rect x="214" y="238" width="568" height="346" rx="28" fill="#141414"/>
  <circle cx="326" cy="350" r="38" fill="#C8A96A" fill-opacity="0.24"/>
  <circle cx="684" cy="334" r="30" fill="#2F80ED" fill-opacity="0.24"/>
  <rect x="282" y="474" width="240" height="18" rx="9" fill="#F5F2EC" fill-opacity="0.22"/>
  <rect x="282" y="516" width="320" height="14" rx="7" fill="#F5F2EC" fill-opacity="0.16"/>
    <circle cx="1036" cy="462" r="18" fill="#BC9B62" fill-opacity="0.24"/>
  <circle cx="1184" cy="522" r="14" fill="#5AA9E6" fill-opacity="0.24"/>
  <path d="M878 820C970 736 1088 716 1220 778" stroke="#FFFFFF" stroke-opacity="0.08" stroke-width="4" stroke-linecap="round"/>
    <g>
    <circle cx="910" cy="332" r="68" fill="#1A1A1A"/>
    <path d="M816 954C832 760 870 552 914 552C960 552 994 758 1010 954H816Z" fill="#121212"/>
    <circle cx="1120" cy="360" r="64" fill="#1A1A1A"/>
    <path d="M1028 964C1042 784 1082 584 1124 584C1166 584 1202 782 1218 964H1028Z" fill="#131313"/>
  </g>
</svg>