<svg xmlns="http://www.w3.org/2000/svg" width="1200" height="800" viewBox="0 0 1200 800" fill="none">
  <defs>
    <linearGradient id="bg" x1="0" y1="0" x2="1200" y2="800" gradientUnits="userSpaceOnUse">
      <stop offset="0" stop-color="#0c0a08"/>
      <stop offset="0.55" stop-color="#1a120c"/>
      <stop offset="1" stop-color="#2a1f16"/>
    </linearGradient>
    <radialGradient id="spot" cx="0" cy="0" r="1" gradientUnits="userSpaceOnUse" gradientTransform="translate(780 150) rotate(120) scale(680 520)">
      <stop offset="0" stop-color="#3a2a1b"/>
      <stop offset="0.5" stop-color="#1d140c" stop-opacity="0.6"/>
      <stop offset="1" stop-color="#0c0a08" stop-opacity="0"/>
    </radialGradient>
    <linearGradient id="gold" x1="0" y1="0" x2="1200" y2="0" gradientUnits="userSpaceOnUse">
      <stop offset="0" stop-color="#f2d28b"/>
      <stop offset="0.5" stop-color="#caa052"/>
      <stop offset="1" stop-color="#f0c77c"/>
    </linearGradient>
  </defs>
  <rect width="1200" height="800" rx="48" fill="url(#bg)"/>
  <rect width="1200" height="800" rx="48" fill="url(#spot)" opacity="0.95"/>
  <path d="M90 620 C260 520 460 540 660 610 C860 680 1040 670 1140 620" stroke="#caa052" stroke-width="2" opacity="0.22"/>
  <path d="M120 210 C320 140 520 160 730 230 C920 300 1100 300 1180 250" stroke="#7a5528" stroke-width="2" opacity="0.25"/>
  <g transform="translate(560 410)" stroke="url(#gold)" stroke-width="5" stroke-linecap="round" stroke-linejoin="round">
    <circle cx="-90" cy="40" r="90" fill="#15100b" opacity="0.8"/>
    <circle cx="40" cy="-40" r="70" fill="#15100b" opacity="0.8"/>
    <circle cx="10" cy="-40" r="28"/>
    <rect x="80" y="-70" width="240" height="36" rx="18"/>
    <rect x="300" y="-90" width="70" height="20" rx="8"/>
    <path d="M90 -52 H320"/>
    <path d="M90 -38 H320" opacity="0.6"/>
    <path d="M90 -24 H320" opacity="0.6"/>
    <path d="M-30 -150 L-20 -80"/>
    <path d="M30 -150 L20 -80"/>
  </g>
</svg>
