<svg xmlns="http://www.w3.org/2000/svg" width="1200" height="800" viewBox="0 0 1200 800" fill="none">
  <defs>
    <linearGradient id="bg" x1="0" y1="0" x2="1200" y2="800" gradientUnits="userSpaceOnUse">
      <stop offset="0" stop-color="#0b0a08"/>
      <stop offset="0.55" stop-color="#18110b"/>
      <stop offset="1" stop-color="#271c14"/>
    </linearGradient>
    <radialGradient id="spot" cx="0" cy="0" r="1" gradientUnits="userSpaceOnUse" gradientTransform="translate(700 150) rotate(118) scale(700 520)">
      <stop offset="0" stop-color="#372718"/>
      <stop offset="0.5" stop-color="#1b130b" stop-opacity="0.6"/>
      <stop offset="1" stop-color="#0b0a08" stop-opacity="0"/>
    </radialGradient>
    <linearGradient id="gold" x1="0" y1="0" x2="1200" y2="0" gradientUnits="userSpaceOnUse">
      <stop offset="0" stop-color="#f2d28b"/>
      <stop offset="0.5" stop-color="#caa052"/>
      <stop offset="1" stop-color="#f0c77c"/>
    </linearGradient>
  </defs>
  <rect width="1200" height="800" rx="48" fill="url(#bg)"/>
  <rect width="1200" height="800" rx="48" fill="url(#spot)" opacity="0.95"/>
  <path d="M90 620 C260 520 460 540 660 610 C860 680 1040 670 1140 620" stroke="#caa052" stroke-width="2" opacity="0.22"/>
  <path d="M150 210 C330 140 520 160 720 230 C900 300 1080 300 1160 250" stroke="#7a5528" stroke-width="2" opacity="0.25"/>
  <g transform="translate(600 420)" stroke="url(#gold)" stroke-width="5" stroke-linecap="round" stroke-linejoin="round">
    <circle cx="-120" cy="40" r="90" fill="#15100b" opacity="0.8"/>
    <circle cx="140" cy="20" r="110" fill="#15100b" opacity="0.8"/>
    <circle cx="-120" cy="40" r="40"/>
    <circle cx="140" cy="20" r="50"/>
    <path d="M-170 -30 V140"/>
    <path d="M-70 -30 V140"/>
    <path d="M90 -40 V160"/>
    <path d="M190 -40 V160"/>
  </g>
</svg>
