<svg xmlns="http://www.w3.org/2000/svg" width="1200" height="800" viewBox="0 0 1200 800" fill="none">
  <defs>
    <linearGradient id="bg" x1="80" y1="40" x2="1120" y2="760" gradientUnits="userSpaceOnUse">
      <stop offset="0" stop-color="#0c0a08"/>
      <stop offset="1" stop-color="#1c130c"/>
    </linearGradient>
    <radialGradient id="glow" cx="0" cy="0" r="1" gradientUnits="userSpaceOnUse" gradientTransform="translate(900 160) rotate(30) scale(520)">
      <stop offset="0" stop-color="#B34BDD" stop-opacity="0.45"/>
      <stop offset="1" stop-color="#B34BDD" stop-opacity="0"/>
    </radialGradient>
  </defs>
  <rect width="1200" height="800" rx="36" fill="url(#bg)"/>
  <rect width="1200" height="800" rx="36" fill="url(#glow)"/>
  <path d="M80 620C260 540 430 540 610 600C820 670 980 660 1120 610" stroke="#B34BDD" stroke-opacity="0.28" stroke-width="4" stroke-linecap="round"/>
  <path d="M140 220H1060" stroke="#ffffff" stroke-opacity="0.06" stroke-width="2"/>
  <circle cx="593" cy="163" r="24" fill="#B34BDD" fill-opacity="0.18"/><circle cx="633" cy="596" r="10" fill="#B34BDD" fill-opacity="0.12"/><circle cx="347" cy="526" r="12" fill="#B34BDD" fill-opacity="0.12"/>
  <path d="M246 582 C 544 538, 882 599, 1120 620" stroke="#B34BDD" stroke-opacity="0.18" stroke-width="3" stroke-linecap="round"/>
  <g transform="translate(600 420) rotate(-4.07) scale(0.89)" stroke="#B34BDD" stroke-width="9" stroke-linecap="round" stroke-linejoin="round">
    <path d="M-260 -140L60 120"/>
    <circle cx="130" cy="160" r="90"/>
    <path d="M120 120L160 200"/>
    <path d="M-200 200H200"/>
    <path d="M-40 -200L0 -120L40 -200L80 -120L120 -200"/>
  </g>
</svg>
