<svg xmlns="http://www.w3.org/2000/svg" width="1200" height="800" viewBox="0 0 1200 800" fill="none">
  <defs>
    <linearGradient id="bg" x1="80" y1="40" x2="1120" y2="760" gradientUnits="userSpaceOnUse">
      <stop offset="0" stop-color="#0c0a08"/>
      <stop offset="1" stop-color="#1c130c"/>
    </linearGradient>
    <radialGradient id="glow" cx="0" cy="0" r="1" gradientUnits="userSpaceOnUse" gradientTransform="translate(900 160) rotate(30) scale(520)">
      <stop offset="0" stop-color="#4BDD55" stop-opacity="0.45"/>
      <stop offset="1" stop-color="#4BDD55" stop-opacity="0"/>
    </radialGradient>
  </defs>
  <rect width="1200" height="800" rx="36" fill="url(#bg)"/>
  <rect width="1200" height="800" rx="36" fill="url(#glow)"/>
  <path d="M80 620C260 540 430 540 610 600C820 670 980 660 1120 610" stroke="#4BDD55" stroke-opacity="0.28" stroke-width="4" stroke-linecap="round"/>
  <path d="M140 220H1060" stroke="#ffffff" stroke-opacity="0.06" stroke-width="2"/>
  <circle cx="625" cy="326" r="14" fill="#4BDD55" fill-opacity="0.18"/><circle cx="184" cy="563" r="21" fill="#4BDD55" fill-opacity="0.12"/><circle cx="550" cy="538" r="22" fill="#4BDD55" fill-opacity="0.12"/>
  <path d="M215 600 C 520 549, 866 660, 1120 620" stroke="#4BDD55" stroke-opacity="0.18" stroke-width="3" stroke-linecap="round"/>
  <g transform="translate(600 420) rotate(-11.14) scale(1.14)" stroke="#4BDD55" stroke-width="10" stroke-linecap="round" stroke-linejoin="round">
    <path d="M0 -160C90 -160 150 -90 130 10C120 80 60 120 0 140C-60 120 -120 80 -130 10C-150 -90 -90 -160 0 -160Z" fill="#120e0a" opacity="0.75" stroke="none"/>
    <circle cx="0" cy="10" r="36"/>
    <rect x="120" y="-40" width="220" height="40" rx="18"/>
    <rect x="320" y="-60" width="70" height="20" rx="8"/>
    <path d="M140 -24H320"/>
    <path d="M140 -8H320" opacity="0.6"/>
    <path d="M140 8H320" opacity="0.6"/>
  </g>
</svg>
