<svg xmlns="http://www.w3.org/2000/svg" width="1200" height="800" viewBox="0 0 1200 800" fill="none">
  <defs>
    <linearGradient id="bg" x1="80" y1="40" x2="1120" y2="760" gradientUnits="userSpaceOnUse">
      <stop offset="0" stop-color="#0c0a08"/>
      <stop offset="1" stop-color="#1c130c"/>
    </linearGradient>
    <radialGradient id="glow" cx="0" cy="0" r="1" gradientUnits="userSpaceOnUse" gradientTransform="translate(900 160) rotate(30) scale(520)">
      <stop offset="0" stop-color="#4BDDB1" stop-opacity="0.45"/>
      <stop offset="1" stop-color="#4BDDB1" stop-opacity="0"/>
    </radialGradient>
  </defs>
  <rect width="1200" height="800" rx="36" fill="url(#bg)"/>
  <rect width="1200" height="800" rx="36" fill="url(#glow)"/>
  <path d="M80 620C260 540 430 540 610 600C820 670 980 660 1120 610" stroke="#4BDDB1" stroke-opacity="0.28" stroke-width="4" stroke-linecap="round"/>
  <path d="M140 220H1060" stroke="#ffffff" stroke-opacity="0.06" stroke-width="2"/>
  <circle cx="281" cy="358" r="33" fill="#4BDDB1" fill-opacity="0.18"/><circle cx="311" cy="385" r="8" fill="#4BDDB1" fill-opacity="0.12"/><circle cx="660" cy="439" r="20" fill="#4BDDB1" fill-opacity="0.12"/>
  <path d="M193 609 C 674 613, 1011 584, 1120 620" stroke="#4BDDB1" stroke-opacity="0.18" stroke-width="3" stroke-linecap="round"/>
  <g transform="translate(600 420) rotate(4.54) scale(0.97)" stroke="#4BDDB1" stroke-width="11" stroke-linecap="round" stroke-linejoin="round">
    <circle cx="0" cy="0" r="180" fill="#120e0a" opacity="0.75" stroke="none"/>
    <circle cx="0" cy="0" r="70"/>
    <circle cx="0" cy="0" r="12" fill="#120e0a" stroke="none"/>
    <path d="M-200 -160L-120 -80"/>
    <path d="M120 80L200 160"/>
  </g>
</svg>
