<?xml version="1.0" encoding="UTF-8"?>
<svg width="1800" height="1100" viewBox="0 0 1800 1100" fill="none" xmlns="http://www.w3.org/2000/svg">
  <defs>
    <linearGradient id="bg-harmonium-lessons-for-beginners" x1="80" y1="60" x2="1660" y2="1040" gradientUnits="userSpaceOnUse">
      <stop offset="0" stop-color="#030303"/>
      <stop offset="1" stop-color="#151515"/>
    </linearGradient>
    <radialGradient id="glow-harmonium-lessons-for-beginners" cx="0" cy="0" r="1" gradientUnits="userSpaceOnUse" gradientTransform="translate(1420 180) rotate(35) scale(460 360)">
      <stop offset="0" stop-color="#0F766E" stop-opacity="0.42"/>
      <stop offset="1" stop-color="#0F766E" stop-opacity="0"/>
    </radialGradient>
    <radialGradient id="gold-harmonium-lessons-for-beginners" cx="0" cy="0" r="1" gradientUnits="userSpaceOnUse" gradientTransform="translate(260 960) rotate(-18) scale(420 260)">
      <stop offset="0" stop-color="#F2CC8F" stop-opacity="0.18"/>
      <stop offset="1" stop-color="#F2CC8F" stop-opacity="0"/>
    </radialGradient>
  </defs>
  <rect width="1800" height="1100" fill="url(#bg-harmonium-lessons-for-beginners)"/>
  <circle cx="1420" cy="180" r="360" fill="url(#glow-harmonium-lessons-for-beginners)"/>
  <circle cx="260" cy="960" r="280" fill="url(#gold-harmonium-lessons-for-beginners)"/>
  <rect x="74" y="66" width="1652" height="968" rx="64" fill="#0A0A0A" stroke="#FFFFFF" stroke-opacity="0.06" stroke-width="2"/>
  <rect x="116" y="108" width="1568" height="884" rx="42" fill="#070707" fill-opacity="0.74"/>
  <path d="M74 886C296 804 504 802 738 854C1038 920 1292 926 1726 782V1034H74V886Z" fill="#090909"/>
  <path d="M150 216H1648" stroke="#FFFFFF" stroke-opacity="0.05" stroke-width="3"/>
  <path d="M156 930C412 840 638 842 890 896C1148 952 1354 950 1642 888" stroke="#14B8A6" stroke-opacity="0.22" stroke-width="5" stroke-linecap="round"/>
  <rect x="186" y="252" width="450" height="212" rx="30" fill="#0D0D0D" stroke="#FFFFFF" stroke-opacity="0.05"/>
  <rect x="224" y="294" width="122" height="16" rx="8" fill="#F2CC8F" fill-opacity="0.36"/>
  <rect x="224" y="334" width="262" height="16" rx="8" fill="#F5F1E8" fill-opacity="0.12"/>
  <rect x="224" y="372" width="208" height="16" rx="8" fill="#F5F1E8" fill-opacity="0.08"/>
  <rect x="224" y="410" width="164" height="16" rx="8" fill="#F5F1E8" fill-opacity="0.06"/>
  
        <rect x="1128" y="636" width="560" height="220" rx="34" fill="#121212" stroke="#F2CC8F" stroke-opacity="0.16"/>
        <rect x="1196" y="694" width="406" height="94" rx="22" fill="#171717"/>
        <g fill="#F6F2E9">
          <rect x="1222" y="694" width="24" height="94" rx="6"/><rect x="1252" y="694" width="24" height="94" rx="6"/><rect x="1282" y="694" width="24" height="94" rx="6"/><rect x="1312" y="694" width="24" height="94" rx="6"/><rect x="1342" y="694" width="24" height="94" rx="6"/><rect x="1372" y="694" width="24" height="94" rx="6"/><rect x="1402" y="694" width="24" height="94" rx="6"/><rect x="1432" y="694" width="24" height="94" rx="6"/>
        </g>
      
</svg>