<svg xmlns="http://www.w3.org/2000/svg" width="1200" height="800" viewBox="0 0 1200 800" fill="none">
  <defs>
    <linearGradient id="bg" x1="80" y1="40" x2="1120" y2="760" gradientUnits="userSpaceOnUse">
      <stop offset="0" stop-color="#0c0a08"/>
      <stop offset="1" stop-color="#1c130c"/>
    </linearGradient>
    <radialGradient id="glow" cx="0" cy="0" r="1" gradientUnits="userSpaceOnUse" gradientTransform="translate(900 160) rotate(30) scale(520)">
      <stop offset="0" stop-color="#DD4B7C" stop-opacity="0.45"/>
      <stop offset="1" stop-color="#DD4B7C" stop-opacity="0"/>
    </radialGradient>
  </defs>
  <rect width="1200" height="800" rx="36" fill="url(#bg)"/>
  <rect width="1200" height="800" rx="36" fill="url(#glow)"/>
  <path d="M80 620C260 540 430 540 610 600C820 670 980 660 1120 610" stroke="#DD4B7C" stroke-opacity="0.28" stroke-width="4" stroke-linecap="round"/>
  <path d="M140 220H1060" stroke="#ffffff" stroke-opacity="0.06" stroke-width="2"/>
  <circle cx="339" cy="240" r="35" fill="#DD4B7C" fill-opacity="0.18"/><circle cx="712" cy="333" r="26" fill="#DD4B7C" fill-opacity="0.12"/><circle cx="224" cy="334" r="10" fill="#DD4B7C" fill-opacity="0.12"/>
  <path d="M256 613 C 635 565, 1000 627, 1120 620" stroke="#DD4B7C" stroke-opacity="0.18" stroke-width="3" stroke-linecap="round"/>
  <g transform="translate(600 420) rotate(-1.62) scale(0.87)" stroke="#DD4B7C" stroke-width="11" stroke-linecap="round" stroke-linejoin="round">
    <rect x="-260" y="-80" width="520" height="160" rx="26" fill="#120e0a" opacity="0.75" stroke="none"/>
    <rect x="-220" y="-50" width="440" height="100" rx="16"/>
    <path d="M-180 -50V50"/>
    <path d="M-120 -50V50"/>
    <path d="M-60 -50V50"/>
    <path d="M0 -50V50"/>
    <path d="M60 -50V50"/>
    <path d="M120 -50V50"/>
    <path d="M180 -50V50"/>
    <rect x="-150" y="-50" width="40" height="60" rx="6" fill="#0b0907" stroke="none"/>
    <rect x="-30" y="-50" width="40" height="60" rx="6" fill="#0b0907" stroke="none"/>
    <rect x="90" y="-50" width="40" height="60" rx="6" fill="#0b0907" stroke="none"/>
  </g>
</svg>
