<svg xmlns="http://www.w3.org/2000/svg" width="1200" height="800" viewBox="0 0 1200 800" fill="none">
  <defs>
    <linearGradient id="bg" x1="80" y1="40" x2="1120" y2="760" gradientUnits="userSpaceOnUse">
      <stop offset="0" stop-color="#0c0a08"/>
      <stop offset="1" stop-color="#1c130c"/>
    </linearGradient>
    <radialGradient id="glow" cx="0" cy="0" r="1" gradientUnits="userSpaceOnUse" gradientTransform="translate(900 160) rotate(30) scale(520)">
      <stop offset="0" stop-color="#4BC9DD" stop-opacity="0.45"/>
      <stop offset="1" stop-color="#4BC9DD" stop-opacity="0"/>
    </radialGradient>
  </defs>
  <rect width="1200" height="800" rx="36" fill="url(#bg)"/>
  <rect width="1200" height="800" rx="36" fill="url(#glow)"/>
  <path d="M80 620C260 540 430 540 610 600C820 670 980 660 1120 610" stroke="#4BC9DD" stroke-opacity="0.28" stroke-width="4" stroke-linecap="round"/>
  <path d="M140 220H1060" stroke="#ffffff" stroke-opacity="0.06" stroke-width="2"/>
  <circle cx="706" cy="181" r="14" fill="#4BC9DD" fill-opacity="0.18"/><circle cx="852" cy="534" r="8" fill="#4BC9DD" fill-opacity="0.12"/><circle cx="466" cy="371" r="6" fill="#4BC9DD" fill-opacity="0.12"/>
  <path d="M229 624 C 534 613, 944 566, 1120 620" stroke="#4BC9DD" stroke-opacity="0.18" stroke-width="3" stroke-linecap="round"/>
  <g transform="translate(600 420) rotate(9.14) scale(1.18)" stroke="#4BC9DD" stroke-width="8" stroke-linecap="round" stroke-linejoin="round">
    <path d="M-180 60C-180 -80 -40 -160 0 -160C40 -160 180 -80 180 60"/>
    <rect x="-220" y="40" width="70" height="140" rx="30"/>
    <rect x="150" y="40" width="70" height="140" rx="30"/>
    <circle cx="0" cy="40" r="50" fill="#120e0a" opacity="0.75" stroke="none"/>
  </g>
</svg>
