<svg xmlns="http://www.w3.org/2000/svg" width="1200" height="800" viewBox="0 0 1200 800" fill="none">
  <defs>
    <linearGradient id="bg" x1="80" y1="40" x2="1120" y2="760" gradientUnits="userSpaceOnUse">
      <stop offset="0" stop-color="#0c0a08"/>
      <stop offset="1" stop-color="#1c130c"/>
    </linearGradient>
    <radialGradient id="glow" cx="0" cy="0" r="1" gradientUnits="userSpaceOnUse" gradientTransform="translate(900 160) rotate(30) scale(520)">
      <stop offset="0" stop-color="#AA4BDD" stop-opacity="0.45"/>
      <stop offset="1" stop-color="#AA4BDD" stop-opacity="0"/>
    </radialGradient>
  </defs>
  <rect width="1200" height="800" rx="36" fill="url(#bg)"/>
  <rect width="1200" height="800" rx="36" fill="url(#glow)"/>
  <path d="M80 620C260 540 430 540 610 600C820 670 980 660 1120 610" stroke="#AA4BDD" stroke-opacity="0.28" stroke-width="4" stroke-linecap="round"/>
  <path d="M140 220H1060" stroke="#ffffff" stroke-opacity="0.06" stroke-width="2"/>
  <circle cx="474" cy="150" r="11" fill="#AA4BDD" fill-opacity="0.18"/><circle cx="176" cy="343" r="29" fill="#AA4BDD" fill-opacity="0.12"/><circle cx="781" cy="337" r="8" fill="#AA4BDD" fill-opacity="0.12"/>
  <path d="M253 614 C 643 521, 897 659, 1120 620" stroke="#AA4BDD" stroke-opacity="0.18" stroke-width="3" stroke-linecap="round"/>
  <g transform="translate(600 420) rotate(2.52) scale(1.01)" stroke="#AA4BDD" stroke-width="8" stroke-linecap="round" stroke-linejoin="round">
    <rect x="-260" y="-120" width="520" height="240" rx="24" fill="#120e0a" opacity="0.75" stroke="none"/>
    <rect x="-230" y="-50" width="300" height="120" rx="16" fill="#0f0b08" stroke="none"/>
    <rect x="-210" y="-30" width="260" height="80" rx="12"/>
    <path d="M-170 -30V50"/>
    <path d="M-120 -30V50"/>
    <path d="M-70 -30V50"/>
    <path d="M-20 -30V50"/>
    <path d="M30 -30V50"/>
    <circle cx="180" cy="-20" r="14"/>
    <circle cx="220" cy="10" r="14"/>
  </g>
</svg>
