<svg xmlns="http://www.w3.org/2000/svg" width="1200" height="800" viewBox="0 0 1200 800" fill="none">
  <defs>
    <linearGradient id="bg" x1="80" y1="40" x2="1120" y2="760" gradientUnits="userSpaceOnUse">
      <stop offset="0" stop-color="#0c0a08"/>
      <stop offset="1" stop-color="#1c130c"/>
    </linearGradient>
    <radialGradient id="glow" cx="0" cy="0" r="1" gradientUnits="userSpaceOnUse" gradientTransform="translate(900 160) rotate(30) scale(520)">
      <stop offset="0" stop-color="#4BC2DD" stop-opacity="0.45"/>
      <stop offset="1" stop-color="#4BC2DD" stop-opacity="0"/>
    </radialGradient>
  </defs>
  <rect width="1200" height="800" rx="36" fill="url(#bg)"/>
  <rect width="1200" height="800" rx="36" fill="url(#glow)"/>
  <path d="M80 620C260 540 430 540 610 600C820 670 980 660 1120 610" stroke="#4BC2DD" stroke-opacity="0.28" stroke-width="4" stroke-linecap="round"/>
  <path d="M140 220H1060" stroke="#ffffff" stroke-opacity="0.06" stroke-width="2"/>
  <circle cx="381" cy="174" r="10" fill="#4BC2DD" fill-opacity="0.18"/><circle cx="291" cy="597" r="16" fill="#4BC2DD" fill-opacity="0.12"/><circle cx="247" cy="141" r="22" fill="#4BC2DD" fill-opacity="0.12"/>
  <path d="M201 597 C 665 556, 989 560, 1120 620" stroke="#4BC2DD" stroke-opacity="0.18" stroke-width="3" stroke-linecap="round"/>
  <g transform="translate(600 420) rotate(7.66) scale(1.08)" stroke="#4BC2DD" stroke-width="10" stroke-linecap="round" stroke-linejoin="round">
    <path d="M-260 -140L60 120"/>
    <circle cx="130" cy="160" r="90"/>
    <path d="M120 120L160 200"/>
    <path d="M-200 200H200"/>
    <path d="M-40 -200L0 -120L40 -200L80 -120L120 -200"/>
  </g>
</svg>
