<svg xmlns="http://www.w3.org/2000/svg" width="1200" height="800" viewBox="0 0 1200 800" fill="none">
  <defs>
    <linearGradient id="bg" x1="80" y1="40" x2="1120" y2="760" gradientUnits="userSpaceOnUse">
      <stop offset="0" stop-color="#0c0a08"/>
      <stop offset="1" stop-color="#1c130c"/>
    </linearGradient>
    <radialGradient id="glow" cx="0" cy="0" r="1" gradientUnits="userSpaceOnUse" gradientTransform="translate(900 160) rotate(30) scale(520)">
      <stop offset="0" stop-color="#BB4BDD" stop-opacity="0.45"/>
      <stop offset="1" stop-color="#BB4BDD" stop-opacity="0"/>
    </radialGradient>
  </defs>
  <rect width="1200" height="800" rx="36" fill="url(#bg)"/>
  <rect width="1200" height="800" rx="36" fill="url(#glow)"/>
  <path d="M80 620C260 540 430 540 610 600C820 670 980 660 1120 610" stroke="#BB4BDD" stroke-opacity="0.28" stroke-width="4" stroke-linecap="round"/>
  <path d="M140 220H1060" stroke="#ffffff" stroke-opacity="0.06" stroke-width="2"/>
  <circle cx="654" cy="136" r="19" fill="#BB4BDD" fill-opacity="0.18"/><circle cx="298" cy="338" r="11" fill="#BB4BDD" fill-opacity="0.12"/><circle cx="317" cy="378" r="22" fill="#BB4BDD" fill-opacity="0.12"/>
  <path d="M240 582 C 686 652, 874 573, 1120 620" stroke="#BB4BDD" stroke-opacity="0.18" stroke-width="3" stroke-linecap="round"/>
  <g transform="translate(600 420) rotate(7.01) scale(0.87)" stroke="#BB4BDD" stroke-width="9" stroke-linecap="round" stroke-linejoin="round">
    <ellipse cx="0" cy="80" rx="90" ry="130" fill="#120e0a" opacity="0.75" stroke="none"/>
    <ellipse cx="0" cy="-60" rx="70" ry="90" fill="#120e0a" opacity="0.75" stroke="none"/>
    <rect x="-12" y="-220" width="24" height="150" rx="12"/>
    <circle cx="0" cy="-240" r="20"/>
    <path d="M-140 160L140 -160"/>
    <circle cx="-40" cy="20" r="14"/>
    <circle cx="40" cy="-20" r="14"/>
  </g>
</svg>
