<svg xmlns="http://www.w3.org/2000/svg" width="1200" height="800" viewBox="0 0 1200 800" fill="none">
  <defs>
    <linearGradient id="bg" x1="80" y1="40" x2="1120" y2="760" gradientUnits="userSpaceOnUse">
      <stop offset="0" stop-color="#0c0a08"/>
      <stop offset="1" stop-color="#1c130c"/>
    </linearGradient>
    <radialGradient id="glow" cx="0" cy="0" r="1" gradientUnits="userSpaceOnUse" gradientTransform="translate(900 160) rotate(30) scale(520)">
      <stop offset="0" stop-color="#6D4BDD" stop-opacity="0.45"/>
      <stop offset="1" stop-color="#6D4BDD" stop-opacity="0"/>
    </radialGradient>
  </defs>
  <rect width="1200" height="800" rx="36" fill="url(#bg)"/>
  <rect width="1200" height="800" rx="36" fill="url(#glow)"/>
  <path d="M80 620C260 540 430 540 610 600C820 670 980 660 1120 610" stroke="#6D4BDD" stroke-opacity="0.28" stroke-width="4" stroke-linecap="round"/>
  <path d="M140 220H1060" stroke="#ffffff" stroke-opacity="0.06" stroke-width="2"/>
  <circle cx="140" cy="101" r="15" fill="#6D4BDD" fill-opacity="0.18"/><circle cx="195" cy="448" r="19" fill="#6D4BDD" fill-opacity="0.12"/><circle cx="564" cy="465" r="16" fill="#6D4BDD" fill-opacity="0.12"/>
  <path d="M161 544 C 562 608, 948 574, 1120 620" stroke="#6D4BDD" stroke-opacity="0.18" stroke-width="3" stroke-linecap="round"/>
  <g transform="translate(600 420) rotate(-11.05) scale(0.86)" stroke="#6D4BDD" stroke-width="11" stroke-linecap="round" stroke-linejoin="round">
    <rect x="-260" y="-20" width="520" height="40" rx="20" fill="#120e0a" opacity="0.75" stroke="none"/>
    <circle cx="-180" cy="0" r="14"/>
    <circle cx="-90" cy="0" r="14"/>
    <circle cx="0" cy="0" r="14"/>
    <circle cx="90" cy="0" r="14"/>
    <circle cx="180" cy="0" r="14"/>
    <path d="M-260 -40L-340 -80"/>
    <path d="M260 40L340 80"/>
  </g>
</svg>
