<svg width="1600" height="900" viewBox="0 0 1600 900" fill="none" xmlns="http://www.w3.org/2000/svg">
  <defs>
    <linearGradient id="bg" x1="0" y1="0" x2="1600" y2="900" gradientUnits="userSpaceOnUse">
      <stop offset="0" stop-color="#050505" />
      <stop offset="0.55" stop-color="#0B0A08" />
      <stop offset="1" stop-color="#141210" />
    </linearGradient>
    <radialGradient id="glow" cx="0" cy="0" r="1" gradientUnits="userSpaceOnUse" gradientTransform="translate(1160 260) rotate(25) scale(420)">
      <stop offset="0" stop-color="#D3AF6B" stop-opacity="0.28" />
      <stop offset="1" stop-color="#D3AF6B" stop-opacity="0" />
    </radialGradient>
    <linearGradient id="goldStroke" x1="0" y1="0" x2="1" y2="1" gradientUnits="userSpaceOnUse">
      <stop offset="0" stop-color="#E6C47A" />
      <stop offset="1" stop-color="#B8893F" />
    </linearGradient>
    <filter id="softShadow" x="-20%" y="-20%" width="140%" height="140%" color-interpolation-filters="sRGB">
      <feDropShadow dx="0" dy="16" stdDeviation="16" flood-color="#000000" flood-opacity="0.45" />
    </filter>
  </defs>

  <rect width="1600" height="900" fill="url(#bg)" />
  <circle cx="1180" cy="280" r="320" fill="url(#glow)" />

  <path d="M160 720C340 678 540 668 760 702C1004 742 1220 742 1440 690" stroke="rgba(211,175,107,0.16)" stroke-width="4" stroke-linecap="round" />
  <path d="M160 760C360 724 580 720 820 752C1048 782 1260 782 1440 736" stroke="rgba(211,175,107,0.12)" stroke-width="3" stroke-linecap="round" />

  <g filter="url(#softShadow)">
    <path d="M520 640H1080" stroke="url(#goldStroke)" stroke-width="10" stroke-linecap="round" />

    <path d="M620 360H980" stroke="url(#goldStroke)" stroke-width="8" stroke-linecap="round" />
    <path d="M620 420H980" stroke="rgba(255,255,255,0.18)" stroke-width="6" stroke-linecap="round" />
    <path d="M620 480H980" stroke="rgba(255,255,255,0.18)" stroke-width="6" stroke-linecap="round" />
    <path d="M620 540H980" stroke="rgba(255,255,255,0.18)" stroke-width="6" stroke-linecap="round" />

    <circle cx="700" cy="420" r="10" fill="#D3AF6B" fill-opacity="0.35" />
    <circle cx="760" cy="360" r="10" fill="#D3AF6B" fill-opacity="0.35" />
    <circle cx="840" cy="480" r="10" fill="#D3AF6B" fill-opacity="0.35" />
    <circle cx="920" cy="420" r="10" fill="#D3AF6B" fill-opacity="0.35" />

    <path
      d="M640 560C720 520 780 520 840 560C900 600 960 610 1020 590"
      stroke="url(#goldStroke)"
      stroke-width="8"
      stroke-linecap="round"
    />
  </g>
</svg>
