<svg width="1600" height="1100" viewBox="0 0 1600 1100" fill="none" xmlns="http://www.w3.org/2000/svg">
  <defs>
    <linearGradient id="bg" x1="160" y1="60" x2="1420" y2="1040" gradientUnits="userSpaceOnUse">
      <stop offset="0" stop-color="#040404"/>
      <stop offset="1" stop-color="#161616"/>
    </linearGradient>
    <radialGradient id="glow" cx="0" cy="0" r="1" gradientUnits="userSpaceOnUse" gradientTransform="translate(1220 220) rotate(45) scale(420)">
      <stop offset="0" stop-color="#8A4CF6" stop-opacity="0.42"/>
      <stop offset="1" stop-color="#8A4CF6" stop-opacity="0"/>
    </radialGradient>
    <linearGradient id="panel" x1="220" y1="150" x2="1340" y2="960" gradientUnits="userSpaceOnUse">
      <stop offset="0" stop-color="#111111"/>
      <stop offset="1" stop-color="#090909"/>
    </linearGradient>
  </defs>
  <rect width="1600" height="1100" fill="url(#bg)"/>
  <circle cx="1240" cy="220" r="340" fill="url(#glow)"/>
  <circle cx="340" cy="860" r="240" fill="#FFFFFF" fill-opacity="0.03"/>
  <rect x="96" y="88" width="1408" height="924" rx="54" fill="url(#panel)" stroke="rgba(255,255,255,0.08)"/>
  <rect x="134" y="126" width="1332" height="848" rx="38" fill="#090909" fill-opacity="0.65"/>
  <path d="M96 850C298 768 478 760 700 818C948 882 1184 900 1504 754V1012H96V850Z" fill="#0B0B0B"/>
  <path d="M180 202H1420" stroke="rgba(255,255,255,0.05)" stroke-width="2"/>
  <path d="M170 876C410 786 612 782 858 840C1092 896 1262 890 1428 842" stroke="#C8A96A" stroke-opacity="0.22" stroke-width="4" stroke-linecap="round"/>
  <circle cx="1080" cy="324" r="92" fill="#171717"/><path d="M946 948C974 726 1028 496 1084 496C1140 496 1186 724 1216 948H946Z" fill="#101010"/><path d="M978 420L1062 348" stroke="#C8A96A" stroke-opacity="0.34" stroke-width="10" stroke-linecap="round"/><rect x="968" y="432" width="10" height="286" rx="5" fill="#1A1A1A"/>
  <circle cx="912" cy="416" r="28" fill="#C8A96A" fill-opacity="0.20"/><circle cx="858" cy="478" r="18" fill="#2F80ED" fill-opacity="0.18"/>
  <path d="M770 350C882 278 1000 256 1148 294" stroke="#FFFFFF" stroke-opacity="0.07" stroke-width="5" stroke-linecap="round"/>
  <rect x="190" y="262" width="420" height="194" rx="28" fill="#0D0D0D" stroke="rgba(255,255,255,0.06)"/>
  <rect x="226" y="298" width="176" height="18" rx="9" fill="#C8A96A" fill-opacity="0.44"/>
  <rect x="226" y="340" width="300" height="14" rx="7" fill="#F5F2EC" fill-opacity="0.20"/>
  <rect x="226" y="378" width="254" height="14" rx="7" fill="#F5F2EC" fill-opacity="0.14"/>
  <rect x="226" y="416" width="198" height="14" rx="7" fill="#F5F2EC" fill-opacity="0.12"/>
  <text x="220" y="708" fill="#F5F2EC" font-family="Montserrat, sans-serif" font-size="72" font-weight="700">Singing</text>
  <text x="222" y="762" fill="#C7C7C7" font-family="Inter, sans-serif" font-size="24">Sur, breath, and classical expression</text>
  <text x="222" y="814" fill="#C8A96A" font-family="Inter, sans-serif" font-size="18" letter-spacing="6">MELODY MONKS</text>
</svg>