<?xml version="1.0" encoding="UTF-8"?>
<svg width="1600" height="1100" viewBox="0 0 1600 1100" fill="none" xmlns="http://www.w3.org/2000/svg">
  <defs>
    <linearGradient id="bg" x1="120" y1="90" x2="1460" y2="1020" gradientUnits="userSpaceOnUse">
      <stop offset="0" stop-color="#050505"/>
      <stop offset="1" stop-color="#161616"/>
    </linearGradient>
    <radialGradient id="glowA" cx="0" cy="0" r="1" gradientUnits="userSpaceOnUse" gradientTransform="translate(1240 220) rotate(38) scale(400)">
      <stop offset="0" stop-color="#8B5CF6" stop-opacity="0.38"/>
      <stop offset="1" stop-color="#8B5CF6" stop-opacity="0"/>
    </radialGradient>
    <radialGradient id="glowB" cx="0" cy="0" r="1" gradientUnits="userSpaceOnUse" gradientTransform="translate(280 850) rotate(-20) scale(360)">
      <stop offset="0" stop-color="#60A5FA" stop-opacity="0.22"/>
      <stop offset="1" stop-color="#60A5FA" stop-opacity="0"/>
    </radialGradient>
    <linearGradient id="panel" x1="150" y1="110" x2="1440" y2="980" gradientUnits="userSpaceOnUse">
      <stop offset="0" stop-color="#101010"/>
      <stop offset="1" stop-color="#090909"/>
    </linearGradient>
  </defs>
  <rect width="1600" height="1100" fill="url(#bg)"/>
  <circle cx="1240" cy="220" r="340" fill="url(#glowA)"/>
  <circle cx="280" cy="850" r="280" fill="url(#glowB)"/>
  <rect x="96" y="88" width="1408" height="924" rx="54" fill="url(#panel)" stroke="rgba(255,255,255,0.08)"/>
  <rect x="132" y="124" width="1336" height="852" rx="40" fill="#090909" fill-opacity="0.7"/>
  <path d="M96 844C308 760 492 758 700 806C940 862 1184 874 1504 734V1012H96V844Z" fill="#0A0A0A"/>
  <path d="M180 202H1420" stroke="rgba(255,255,255,0.05)" stroke-width="2"/>
  <path d="M168 872C416 784 620 786 860 842C1094 894 1268 886 1430 838" stroke="#F59E0B" stroke-opacity="0.22" stroke-width="4" stroke-linecap="round"/>
  <rect x="188" y="244" width="428" height="198" rx="28" fill="#0D0D0D" stroke="rgba(255,255,255,0.06)"/>
  <rect x="226" y="286" width="104" height="16" rx="8" fill="#60A5FA" fill-opacity="0.42"/>
  <rect x="226" y="324" width="264" height="14" rx="7" fill="#F5F2EC" fill-opacity="0.14"/>
  <rect x="226" y="360" width="220" height="14" rx="7" fill="#F5F2EC" fill-opacity="0.1"/>
  <rect x="226" y="396" width="180" height="14" rx="7" fill="#F5F2EC" fill-opacity="0.08"/>
  <circle cx="720" cy="830" r="110" fill="#FFFFFF" fill-opacity="0.02"/>
  
        <rect x="904" y="268" width="300" height="220" rx="34" fill="#111111" stroke="#FFFFFF" stroke-opacity="0.06"/>
        <rect x="938" y="302" width="232" height="152" rx="20" fill="#0C0C0C"/>
        <circle cx="1002" cy="380" r="16" fill="#60A5FA" fill-opacity="0.32"/>
        <rect x="1040" y="364" width="100" height="14" rx="7" fill="#FFFFFF" fill-opacity="0.12"/>
        <rect x="1040" y="392" width="76" height="14" rx="7" fill="#FFFFFF" fill-opacity="0.08"/>
        <circle cx="1160" cy="336" r="12" fill="#F59E0B" fill-opacity="0.36"/>
        <path d="M808 720C898 660 1020 646 1180 684" stroke="#F59E0B" stroke-opacity="0.34" stroke-width="8" stroke-linecap="round"/>
      
</svg>