<svg width="1600" height="1100" viewBox="0 0 1600 1100" fill="none" xmlns="http://www.w3.org/2000/svg">
  <defs>
    <linearGradient id="bg" x1="160" y1="60" x2="1420" y2="1040" gradientUnits="userSpaceOnUse">
      <stop offset="0" stop-color="#040404"/>
      <stop offset="1" stop-color="#161616"/>
    </linearGradient>
    <radialGradient id="glow" cx="0" cy="0" r="1" gradientUnits="userSpaceOnUse" gradientTransform="translate(1220 220) rotate(45) scale(420)">
      <stop offset="0" stop-color="#2F80ED" stop-opacity="0.42"/>
      <stop offset="1" stop-color="#2F80ED" stop-opacity="0"/>
    </radialGradient>
    <linearGradient id="panel" x1="220" y1="150" x2="1340" y2="960" gradientUnits="userSpaceOnUse">
      <stop offset="0" stop-color="#111111"/>
      <stop offset="1" stop-color="#090909"/>
    </linearGradient>
  </defs>
  <rect width="1600" height="1100" fill="url(#bg)"/>
  <circle cx="1240" cy="220" r="340" fill="url(#glow)"/>
  <circle cx="340" cy="860" r="240" fill="#FFFFFF" fill-opacity="0.03"/>
  <rect x="96" y="88" width="1408" height="924" rx="54" fill="url(#panel)" stroke="rgba(255,255,255,0.08)"/>
  <rect x="134" y="126" width="1332" height="848" rx="38" fill="#090909" fill-opacity="0.65"/>
  <path d="M96 850C298 768 478 760 700 818C948 882 1184 900 1504 754V1012H96V850Z" fill="#0B0B0B"/>
  <path d="M180 202H1420" stroke="rgba(255,255,255,0.05)" stroke-width="2"/>
  <path d="M170 876C410 786 612 782 858 840C1092 896 1262 890 1428 842" stroke="#D3AF6B" stroke-opacity="0.22" stroke-width="4" stroke-linecap="round"/>
  <rect x="852" y="638" width="436" height="178" rx="30" fill="#111111" stroke="rgba(255,255,255,0.08)"/><rect x="886" y="678" width="54" height="96" rx="10" fill="#F0E8DA"/><rect x="950" y="678" width="54" height="96" rx="10" fill="#F0E8DA"/><rect x="1014" y="678" width="54" height="96" rx="10" fill="#F0E8DA"/><rect x="1078" y="678" width="54" height="96" rx="10" fill="#F0E8DA"/><rect x="1142" y="678" width="54" height="96" rx="10" fill="#F0E8DA"/>
  <rect x="918" y="678" width="28" height="56" rx="8" fill="#050505"/><rect x="982" y="678" width="28" height="56" rx="8" fill="#050505"/><rect x="1046" y="678" width="28" height="56" rx="8" fill="#050505"/><rect x="1110" y="678" width="28" height="56" rx="8" fill="#050505"/>
  <circle cx="1200" cy="390" r="86" fill="#171717"/><path d="M1084 944C1112 736 1160 500 1208 500C1256 500 1298 734 1328 944H1084Z" fill="#101010"/>
  <rect x="190" y="262" width="420" height="194" rx="28" fill="#0D0D0D" stroke="rgba(255,255,255,0.06)"/>
  <rect x="226" y="298" width="176" height="18" rx="9" fill="#D3AF6B" fill-opacity="0.44"/>
  <rect x="226" y="340" width="300" height="14" rx="7" fill="#F5F2EC" fill-opacity="0.20"/>
  <rect x="226" y="378" width="254" height="14" rx="7" fill="#F5F2EC" fill-opacity="0.14"/>
  <rect x="226" y="416" width="198" height="14" rx="7" fill="#F5F2EC" fill-opacity="0.12"/>
  <text x="220" y="708" fill="#F5F2EC" font-family="Montserrat, sans-serif" font-size="72" font-weight="700">Rehearsal Session</text>
  <text x="222" y="762" fill="#C7C7C7" font-family="Inter, sans-serif" font-size="24">Practice blocks, repetition, and module checkpoints</text>
  <text x="222" y="814" fill="#D3AF6B" font-family="Inter, sans-serif" font-size="18" letter-spacing="6">MELODY MONKS</text>
</svg>