<?xml version="1.0" encoding="UTF-8"?>
<svg width="2048" height="1280" viewBox="0 0 2048 1280" fill="none" xmlns="http://www.w3.org/2000/svg">
  
    <defs>
      <linearGradient id="bg" x1="160" y1="90" x2="1830" y2="1180" gradientUnits="userSpaceOnUse">
        <stop offset="0" stop-color="#030303"/>
        <stop offset="0.56" stop-color="#090909"/>
        <stop offset="1" stop-color="#141414"/>
      </linearGradient>
      <radialGradient id="glowTop" cx="0" cy="0" r="1" gradientUnits="userSpaceOnUse" gradientTransform="translate(1540 180) rotate(40) scale(560 420)">
        <stop offset="0" stop-color="#2563EB" stop-opacity="0.42"/>
        <stop offset="1" stop-color="#2563EB" stop-opacity="0"/>
      </radialGradient>
      <radialGradient id="glowBottom" cx="0" cy="0" r="1" gradientUnits="userSpaceOnUse" gradientTransform="translate(360 1080) rotate(-16) scale(520 320)">
        <stop offset="0" stop-color="#F6D58E" stop-opacity="0.18"/>
        <stop offset="1" stop-color="#F6D58E" stop-opacity="0"/>
      </radialGradient>
      <linearGradient id="glass" x1="200" y1="150" x2="1800" y2="1130" gradientUnits="userSpaceOnUse">
        <stop offset="0" stop-color="#131313"/>
        <stop offset="1" stop-color="#090909"/>
      </linearGradient>
      <linearGradient id="beamGradient" x1="0" y1="0" x2="1" y2="1">
        <stop offset="0" stop-color="#38BDF8" stop-opacity="0.12"/>
        <stop offset="0.5" stop-color="#38BDF8" stop-opacity="0.44"/>
        <stop offset="1" stop-color="#38BDF8" stop-opacity="0.04"/>
      </linearGradient>
      <filter id="grain" x="-20%" y="-20%" width="140%" height="140%">
        <feTurbulence type="fractalNoise" baseFrequency="0.82" numOctaves="2" stitchTiles="stitch"/>
        <feColorMatrix type="saturate" values="0"/>
        <feComponentTransfer>
          <feFuncA type="table" tableValues="0 0 0.04 0.08"/>
        </feComponentTransfer>
      </filter>
      <filter id="softBlur" x="-20%" y="-20%" width="140%" height="140%">
        <feGaussianBlur stdDeviation="16"/>
      </filter>
      <filter id="shadow" x="-20%" y="-20%" width="140%" height="140%">
        <feDropShadow dx="0" dy="26" stdDeviation="28" flood-color="#000000" flood-opacity="0.42"/>
      </filter>
      <linearGradient id="lineGrad" x1="340" y1="1020" x2="1760" y2="920" gradientUnits="userSpaceOnUse">
        <stop offset="0" stop-color="#C8A96A" stop-opacity="0.2"/>
        <stop offset="0.5" stop-color="#38BDF8" stop-opacity="0.42"/>
        <stop offset="1" stop-color="#2563EB" stop-opacity="0.2"/>
      </linearGradient>
    </defs>
  
    <rect width="2048" height="1280" fill="url(#bg)"/>
    <circle cx="1540" cy="180" r="420" fill="url(#glowTop)"/>
    <circle cx="360" cy="1080" r="360" fill="url(#glowBottom)"/>
    <rect x="110" y="92" width="1828" height="1096" rx="72" fill="url(#glass)" stroke="#FFFFFF" stroke-opacity="0.06" stroke-width="2"/>
    <rect x="156" y="138" width="1736" height="1004" rx="46" fill="#070707" fill-opacity="0.74" stroke="#FFFFFF" stroke-opacity="0.03"/>
    <path d="M110 968C356 876 582 866 842 924C1162 994 1458 1002 1938 844V1188H110V968Z" fill="#0A0A0A"/>
    <path d="M196 246H1848" stroke="#FFFFFF" stroke-opacity="0.05" stroke-width="3"/>
    <path d="M188 1006C476 900 720 902 1010 968C1292 1030 1508 1028 1840 954" stroke="url(#lineGrad)" stroke-width="5" stroke-linecap="round"/>
    <g filter="url(#softBlur)">
      <ellipse cx="1290" cy="860" rx="210" ry="60" fill="#38BDF8" fill-opacity="0.12"/>
      <ellipse cx="930" cy="900" rx="260" ry="80" fill="#2563EB" fill-opacity="0.08"/>
    </g>
    <path d="M182 620C246 534 300 480 360 448" stroke="#F6D58E" stroke-opacity="0.08" stroke-width="14" stroke-linecap="round"/>
    <path d="M1620 286C1718 340 1784 410 1836 504" stroke="#38BDF8" stroke-opacity="0.08" stroke-width="14" stroke-linecap="round"/>
    <g opacity="0.9" filter="url(#shadow)">
      <rect x="216" y="286" width="482" height="232" rx="30" fill="#0D0D0D" stroke="#FFFFFF" stroke-opacity="0.06"/>
      <rect x="252" y="326" width="126" height="18" rx="9" fill="#F6D58E" fill-opacity="0.4"/>
      <rect x="252" y="366" width="286" height="16" rx="8" fill="#F4F0E8" fill-opacity="0.13"/>
      <rect x="252" y="404" width="226" height="16" rx="8" fill="#F4F0E8" fill-opacity="0.1"/>
      <rect x="252" y="442" width="182" height="16" rx="8" fill="#F4F0E8" fill-opacity="0.08"/>
    </g>
    <rect x="0" y="0" width="2048" height="1280" filter="url(#grain)" opacity="0.3"/>
  
  
        <g filter="url(#shadow)">
          <rect x="1210" y="702" width="598" height="214" rx="38" fill="#111111" stroke="#FFFFFF" stroke-opacity="0.06"/>
          <rect x="1280" y="756" width="438" height="92" rx="22" fill="#181818"/>
          <g fill="#F7F4EC">
            <rect x="1302" y="756" width="34" height="92" rx="8"/>
            <rect x="1346" y="756" width="34" height="92" rx="8"/>
            <rect x="1390" y="756" width="34" height="92" rx="8"/>
            <rect x="1434" y="756" width="34" height="92" rx="8"/>
            <rect x="1478" y="756" width="34" height="92" rx="8"/>
            <rect x="1522" y="756" width="34" height="92" rx="8"/>
            <rect x="1566" y="756" width="34" height="92" rx="8"/>
            <rect x="1610" y="756" width="34" height="92" rx="8"/>
            <rect x="1654" y="756" width="34" height="92" rx="8"/>
          </g>
          <g fill="#090909">
            <rect x="1328" y="756" width="24" height="54" rx="6"/>
            <rect x="1372" y="756" width="24" height="54" rx="6"/>
            <rect x="1460" y="756" width="24" height="54" rx="6"/>
            <rect x="1504" y="756" width="24" height="54" rx="6"/>
            <rect x="1548" y="756" width="24" height="54" rx="6"/>
            <rect x="1636" y="756" width="24" height="54" rx="6"/>
          </g>
          <path d="M1120 900C1260 816 1420 796 1706 836" stroke="#38BDF8" stroke-opacity="0.38" stroke-width="10" stroke-linecap="round"/>
        </g>
      
</svg>